<?xml version="1.0" encoding="utf-8"?>
<!-- Generator: Adobe Illustrator 17.0.0, SVG Export Plug-In . SVG Version: 6.00 Build 0)  -->
<!DOCTYPE svg PUBLIC "-//W3C//DTD SVG 1.1//EN" "http://www.w3.org/Graphics/SVG/1.1/DTD/svg11.dtd">
<svg version="1.1" id="Layer_1" xmlns="http://www.w3.org/2000/svg" xmlns:xlink="http://www.w3.org/1999/xlink" x="0px" y="0px"
	 width="116px" height="20px" viewBox="0 0 116 20" enable-background="new 0 0 116 20" xml:space="preserve">
<path fill="#FFFFFF" d="M109.904,4.143c-1.209,0-1.922,0.553-1.922,1.437c0,3.204,8.017,2.431,8.017,8.729
	c0,3.371-2.883,5.691-6.59,5.691c-2.581,0-5.573-1.105-6.507-3.177l2.499-3.011c1.098,1.409,2.773,2.044,4.118,2.044
	c1.153,0,1.812-0.58,1.812-1.491c0-2.901-8.017-2.542-8.017-8.785c0-2.984,2.361-5.581,6.205-5.581c2.471,0,4.448,0.829,5.656,2.128
	l-2.361,3.315C111.963,4.64,111.331,4.143,109.904,4.143z M94.255,19.681L90.241,7.234l-3.959,12.447h-4.207L76.384,0.319h4.976
	l3.245,12.225l3.601-12.225h4.427l3.712,12.225l3.299-12.225h4.235l-5.417,19.362H94.255z M63.937,0.319h11.797v4.143h-7.403v3.427
	h5.45v4.143h-5.45v3.506h7.403v4.143H63.937V0.319z M49.784,8.048v11.633h-4.392V0.319h3.741l9.111,11.633V0.319h4.393v19.362
	h-3.742L49.784,8.048z M33.691,19.681c-3.085,0-6.196,0-6.196,0v-4.143c0,0,7.391,0.003,6.369,0
	c3.818,0.013,6.241-1.903,6.241-5.571c0-3.557-2.645-5.505-6.241-5.505c-0.851,0-6.369,0-6.369,0V0.319c0,0,2.985-0.001,6.416-0.001
	c7.716,0,10.83,4.519,10.83,9.649C44.741,15.373,41.049,19.681,33.691,19.681z M14.397,0.319h11.797v4.143h-7.403v3.427h5.45v4.143
	h-5.45v3.506h7.403v4.143H14.397V0.319z M0.001,19.681V0.319h4.392v15.219h8.704l-0.001,4.143H0.001z"/>
</svg>
