<svg xmlns="http://www.w3.org/2000/svg" xmlns:xlink="http://www.w3.org/1999/xlink" preserveAspectRatio="xMidYMid" width="116" height="20" viewBox="0 0 116 20">
  <defs>
    <style>
      .cls-1 {
        fill: #1a1a1a;
        fill-rule: evenodd;
      }
    </style>
  </defs>
  <path d="M109.904,4.143 C108.695,4.143 107.982,4.696 107.982,5.580 C107.982,8.784 115.999,8.011 115.999,14.309 C115.999,17.680 113.116,20.000 109.409,20.000 C106.828,20.000 103.836,18.895 102.902,16.823 L105.401,13.812 C106.499,15.221 108.174,15.856 109.519,15.856 C110.672,15.856 111.331,15.276 111.331,14.365 C111.331,11.464 103.314,11.823 103.314,5.580 C103.314,2.596 105.675,-0.001 109.519,-0.001 C111.990,-0.001 113.967,0.828 115.175,2.127 L112.814,5.442 C111.963,4.640 111.331,4.143 109.904,4.143 ZM94.255,19.681 L90.241,7.234 L86.282,19.681 L82.075,19.681 L76.384,0.319 L81.360,0.319 L84.605,12.544 L88.206,0.319 L92.633,0.319 L96.345,12.544 L99.644,0.319 L103.879,0.319 L98.462,19.681 L94.255,19.681 ZM63.937,0.319 L75.734,0.319 L75.734,4.462 L68.331,4.462 L68.331,7.889 L73.781,7.889 L73.781,12.032 L68.331,12.032 L68.331,15.538 L75.734,15.538 L75.734,19.681 L63.937,19.681 L63.937,0.319 ZM49.784,8.048 L49.784,19.681 L45.392,19.681 L45.392,0.319 L49.133,0.319 L58.244,11.952 L58.244,0.319 L62.637,0.319 L62.637,19.681 L58.895,19.681 L49.784,8.048 ZM33.691,19.681 C30.606,19.681 27.495,19.681 27.495,19.681 L27.495,15.538 C27.495,15.538 34.886,15.541 33.864,15.538 C37.682,15.551 40.105,13.635 40.105,9.967 C40.105,6.410 37.460,4.462 33.864,4.462 C33.013,4.462 27.495,4.462 27.495,4.462 L27.495,0.319 C27.495,0.319 30.480,0.318 33.911,0.318 C41.627,0.318 44.741,4.837 44.741,9.967 C44.741,15.373 41.049,19.681 33.691,19.681 ZM14.397,0.319 L26.194,0.319 L26.194,4.462 L18.791,4.462 L18.791,7.889 L24.241,7.889 L24.241,12.032 L18.791,12.032 L18.791,15.538 L26.194,15.538 L26.194,19.681 L14.397,19.681 L14.397,0.319 ZM0.001,19.681 L0.001,0.319 L4.393,0.319 L4.393,15.538 L13.097,15.538 L13.096,19.681 L0.001,19.681 Z" class="cls-1"/>
</svg>
