<?xml version="1.0" encoding="utf-8"?>
<!-- Generator: Adobe Illustrator 17.0.0, SVG Export Plug-In . SVG Version: 6.00 Build 0)  -->
<!DOCTYPE svg PUBLIC "-//W3C//DTD SVG 1.1//EN" "http://www.w3.org/Graphics/SVG/1.1/DTD/svg11.dtd">
<svg version="1.1" id="Layer_1" xmlns="http://www.w3.org/2000/svg" xmlns:xlink="http://www.w3.org/1999/xlink" x="0px" y="0px"
	 width="213px" height="57px" viewBox="0 0 213 57" enable-background="new 0 0 213 57" xml:space="preserve">
<g>
	<text transform="matrix(1 0 0 1 11.2876 49.5791)" font-family="'CenturyGothic'" font-size="10.1592" letter-spacing="1">wordpress </text>
</g>
<g>
	<text transform="matrix(1 0 0 1 81.1255 49.5772)" font-family="'CenturyGothic'" font-size="10.1592" letter-spacing="1">outsourcing service </text>
</g>
<g>
	<text transform="matrix(0.8721 0 0 1 9 36.7583)" font-family="'CenturyGothic'" font-size="32.9009">BIGCAT</text>
</g>
<path d="M80.552,45.093c-0.002,0.013-0.006,0.023-0.009,0.034C80.597,45.039,80.561,45.036,80.552,45.093z"/>
<path d="M79.822,45.104c0.004,0.011,0.008,0.021,0.013,0.032c0.002,0.011,0.005,0.026,0.007,0.044
	C79.822,45.14,79.818,45.109,79.822,45.104z"/>
<g>
	<text transform="matrix(0.8721 0 0 1 113.3027 36.7583)" font-family="'CenturyGothic'" font-size="32.9009">CODE</text>
</g>
<text transform="matrix(1 0 0 1 157.5449 8.418)" font-family="'CenturyGothic'" font-size="6.216">by  Ukraine</text>
</svg>
