<?xml version="1.0" encoding="utf-8"?>
<!-- Generator: Adobe Illustrator 17.0.0, SVG Export Plug-In . SVG Version: 6.00 Build 0)  -->
<!DOCTYPE svg PUBLIC "-//W3C//DTD SVG 1.1//EN" "http://www.w3.org/Graphics/SVG/1.1/DTD/svg11.dtd">
<svg version="1.1" id="Layer_1" xmlns="http://www.w3.org/2000/svg" xmlns:xlink="http://www.w3.org/1999/xlink" x="0px" y="0px"
	 width="1024px" height="768px" viewBox="0 0 1024 768" enable-background="new 0 0 1024 768" xml:space="preserve">
<g>
	<g>
		<text transform="matrix(1 0 0 1 402.3253 408.5356)" fill="#FFFFFF" font-family="'CenturyGothic'" font-size="11.3877">wordpress </text>
	</g>
	<g>
		<text transform="matrix(1 0 0 1 487.6085 408.5336)" fill="#FFFFFF" font-family="'CenturyGothic'" font-size="11.3877">outsourcing service </text>
	</g>
	<g>
		<text transform="matrix(0.8721 0 0 1 401.7608 394.1645)" fill="#FFFFFF" font-family="'CenturyGothic'" font-size="36.8795">BIG</text>
	</g>
	<path fill="#F3B01C" d="M462.774,370.034v-6.675c0-0.763-0.107-3.447,0.938-5.445c0.544-1.041,1.948-0.701,2.633,0.24
		c0.442,0.608,0.919,1.545,1.199,2.128c0,0,3.085-0.414,5.273-0.457c2.188-0.043,5.938,0.457,5.938,0.457
		c0.28-0.582,0.757-1.52,1.199-2.128c0.685-0.941,2.132-1.302,2.633-0.24c0.86,1.825,1.081,4.691,1.081,5.445v6.163
		c7.522,0,14.974,0,17.682,0c6.185,0,5.713,4.71,5.713,4.71v4.252c0.496-0.03,7.184-0.357,7.133,3.863
		c-0.053,4.383-0.353,9.645-0.353,9.645s-0.86,4.757-5.472,4.85c-3.207,0.065-19.703,0.039-29.458,0.018
		c-2.303-0.27-2.303,1.033-2.303,1.033v1.509c0,0.555,0.221,3.238-4.492,3.238c-3.139,0-4.453-3.504-5-6.645
		c-0.445-2.553,1.258-4.868,1.258-4.868l1.394-0.016h6.519h28.383c1.248,0,2.277-0.975,2.356-2.197
		c-0.193,1.102-1.165,1.946-2.326,1.946h-28.383h-12.078c-1.299,0-2.361-1.057-2.361-2.348V371.87
		C461.88,371.129,462.23,370.465,462.774,370.034z"/>
	<path fill="#F8D93F" d="M486.436,370.938c0,0-0.736,18.781-3.384,18.847c-2.779,0.069-3.419,0.292-4.592,0.069
		c-1.173-0.223-1.001-5.459-1.076-5.708c-0.075-0.249-7.132-0.456-7.132-0.456s8.473,0.701,10.021-0.879
		c1.548-1.58,2.471-7.406,2.471-7.406s3.183-1.198,2.585-4.468H486.436z"/>
	<path fill="#F8D93F" d="M492.047,376.897c0-2.405,1.074-4.555,2.761-5.984c2.297,0,4.142,0,5.173,0
		c5.228,0,4.829,4.057,4.829,4.057v7.76c-1.354,1.218-3.136,1.958-5.087,1.958C495.484,384.688,492.047,381.199,492.047,376.897z"/>
	<path fill="#F8D93F" d="M462.354,376.541l0.215,11.515l7.56,0.006v3.242h6.505c0,0,0.939-5.205-0.092-6.484
		c-1.006-1.249-10.431-0.175-11.62-0.613c-0.512-0.189-0.131-6.592-0.131-6.592L462.354,376.541z"/>
	<path fill="#F8D93F" d="M475.84,400.279c0,0-5.582-0.636-4.027-5.017c1.13-2.897,5.571-2.332,5.571-2.332
		s27.614,0.071,29.498,0.071s5.477,0.481,6.759-9.553c0.729-5.709,0.459,8.915-0.321,10.059s-1.668,3.311-5.584,2.992
		s-30.352-0.107-30.352-0.107s-0.92,0.597-0.825,2.19C476.654,400.177,476.414,400.382,475.84,400.279z"/>
	<path fill="#F8D93F" d="M483.122,363.247c0,0-7.331-1.459-8.276,0.236c-0.945,1.696-1.041,3.792-1.041,3.792h-1.6
		c0,0-0.34-3.307-0.768-3.933c-1.288-1.883-6.809-0.675-7.711-0.013v-1.424c0,0,5.342-1.222,9.141-1.247
		c4.735-0.032,9.943,1.028,10.076,1.277C483.122,362.268,483.122,363.247,483.122,363.247z"/>
	<circle fill="#010101" cx="478.46" cy="365.128" r="0.421"/>
	<circle fill="#010101" cx="467.958" cy="365.128" r="0.421"/>
	<path fill="#010101" d="M467.54,371.335c0.82,0.046,1.642,0.077,2.464,0.09c0.887,0.015,2.145,0.205,2.658-0.699
		c0-0.046,0-0.091,0-0.137c0-0.234,0-0.469,0-0.703c0-0.304,0-0.609,0-0.913c-0.793-0.024-1.487-0.117-1.487-0.281
		c0-0.383,0.847-0.694,1.892-0.694c1.045,0,1.892,0.31,1.892,0.694c0,0.159-0.649,0.251-1.41,0.279
		c-0.084,0.802-0.253,2.168,0.643,2.374c0.01,0,0.024,0.001,0.048,0.002c0.125,0.007,0.251,0.013,0.376,0.019
		c0.443,0.021,0.887,0.038,1.33,0.052c0.817,0.024,1.735,0.122,2.541-0.053c0.269-0.059,0.484-0.234,0.662-0.433
		c0.053-0.06,0.094-0.133,0.133-0.203c0.006-0.011,0.011-0.019,0.016-0.027c0-0.003,0.001-0.009,0.005-0.019
		c0.1-0.315,0.201-0.63,0.301-0.945c0.12-0.377,0.714-0.216,0.593,0.164c-0.263,0.825-0.422,1.559-1.285,1.962
		c-0.375,0.175-0.822,0.17-1.227,0.182c-0.616,0.019-1.233,0.002-1.849-0.016c-0.621-0.019-1.4,0.072-1.997-0.148
		c-0.364-0.134-0.596-0.38-0.741-0.685c-0.671,1.005-2.029,0.859-3.095,0.844c-0.84-0.012-1.681-0.086-2.521-0.09
		c-1.126-0.005-1.612-0.998-1.501-2.011c0.043-0.39,0.658-0.394,0.615,0C466.514,370.702,466.733,371.289,467.54,371.335z"/>
	<path fill="#010101" d="M452.314,369.338c1.322-0.52,2.774-0.686,4.182-0.767c1.558-0.089,3.121-0.065,4.679,0.021
		c0.429,0.024,0.859,0.051,1.289,0.082v0.872c-0.452,0.313-0.804,0.762-0.967,1.348c-0.193,0.696-0.115,1.484-0.115,2.198v15.216
		c0.04,1.326,0.981,2.428,2.303,2.628c0.35,0.053,0.719,0.028,1.071,0.028h3.3c-0.007,0.013-0.015,0.026-0.022,0.038
		c-0.21,0.355-0.396,0.724-0.553,1.106c-0.477,1.156-0.681,2.372-0.487,3.615c0.327,1.842,0.849,3.851,2.089,5.309
		c1.256,1.478,2.987,1.763,4.836,1.435c1.21-0.215,2.434-0.762,2.937-1.957c0.267-0.634,0.235-1.302,0.235-1.974
		c0-0.366-0.074-0.933,0.043-1.169c0.404-0.815,1.599-0.553,2.318-0.552c2.268,0.005,4.535,0.009,6.803,0.013
		c4.785,0.008,9.57,0.013,14.355,0.008c1.811-0.002,3.621-0.005,5.432-0.015c1.264-0.007,2.662,0.116,3.894-0.203
		c1.637-0.424,2.941-1.563,3.704-3.058c0.322-0.632,0.653-1.36,0.692-2.081c0.111-2.014,0.199-4.029,0.264-6.045
		c0.042-1.292,0.198-2.661,0.052-3.948c-0.082-0.722-0.397-1.415-0.912-1.932c-1.59-1.6-4.381-1.882-6.531-1.73
		c-0.009,0.001-0.017,0.003-0.025,0.004v-1.74c0-1.287,0.178-2.783-0.316-4.005c-0.545-1.35-1.665-2.292-3.053-2.714
		c-1.364-0.415-2.783-0.36-4.19-0.36h-7.06c-1.115-0.334-2.3-0.463-3.453-0.534c-1.599-0.098-3.204-0.075-4.803,0.013
		c-0.111,0.006-0.222,0.013-0.334,0.02v-0.7c1.482-0.199,2.976-0.347,4.472-0.374c1.372-0.025,2.784,0.016,4.107,0.413
		c0.191,0.057,0.271-0.24,0.082-0.297c-1.346-0.403-2.794-0.455-4.189-0.424c-1.496,0.034-2.989,0.175-4.472,0.374v-0.761
		c2.488-0.345,5.01-0.435,7.52-0.315c0.198,0.009,0.197-0.298,0-0.308c-2.505-0.12-5.031-0.034-7.52,0.308v-2.696
		c0-0.76-0.093-1.528-0.208-2.278c-0.098-0.638-0.216-1.275-0.392-1.896c-0.143-0.505-0.289-1.111-0.583-1.554
		c-0.531-0.802-1.56-0.859-2.338-0.358c-0.918,0.591-1.419,1.695-1.882,2.663c-1.7-0.223-3.423-0.406-5.137-0.433
		c-1.903-0.03-3.824,0.183-5.711,0.432c-0.448-0.948-0.967-2.164-1.904-2.676c-0.827-0.452-1.803-0.41-2.335,0.423
		c-0.015,0.018-0.028,0.038-0.04,0.062c-0.071,0.141-0.138,0.283-0.202,0.427c-0.735,1.661-0.777,3.503-0.777,5.287v2.267
		c-2.423-0.32-4.876-0.401-7.318-0.285c-0.197,0.009-0.198,0.317,0,0.308c2.438-0.116,4.895-0.04,7.318,0.282v0.668
		c-0.307-0.046-0.614-0.09-0.921-0.132c-1.6-0.217-3.212-0.386-4.828-0.407c-1.358-0.018-2.756,0.034-4.065,0.426
		c-0.189,0.057-0.109,0.354,0.082,0.297c1.36-0.408,2.822-0.448,4.232-0.41c1.587,0.043,3.17,0.201,4.741,0.424
		c0.253,0.036,0.506,0.073,0.76,0.112v0.989c-0.43-0.031-0.859-0.058-1.289-0.081c-1.639-0.087-3.288-0.121-4.926-0.005
		c-1.354,0.096-2.744,0.261-4.016,0.762C452.05,369.114,452.13,369.411,452.314,369.338z M482.654,372.52
		c-1.333,1.191-3.463,1.445-5.167,1.607c-1.77,0.169-3.545,0.166-5.321,0.173c-1.898,0.008-3.842,0.025-5.707-0.371
		c-1.47-0.312-3.379-0.983-3.379-2.784v-2.425c1.243,0.1,2.484,0.234,3.715,0.418c0.194,0.029,0.277-0.267,0.082-0.297
		c-1.258-0.189-2.526-0.328-3.797-0.431v-0.941c1.374,0.22,2.745,0.48,4.097,0.801c0.193,0.046,0.275-0.251,0.082-0.297
		c-1.379-0.327-2.777-0.594-4.179-0.816v-0.675c0.865,0.13,1.725,0.293,2.578,0.49c1.287,0.298,2.618,0.634,3.827,1.184
		c0.179,0.081,0.336-0.184,0.155-0.266c-1.233-0.56-2.586-0.915-3.901-1.215c-0.88-0.201-1.768-0.366-2.659-0.499v-2.325
		c0-1.848,0.042-3.746,0.896-5.433c0.459-0.787,1.469-0.486,1.979,0.096c0.569,0.648,0.949,1.501,1.321,2.272
		c0.042,0.086,0.168,0.165,0.266,0.152c1.942-0.26,3.931-0.499,5.893-0.456c1.777,0.039,3.557,0.222,5.318,0.456
		c0.097,0.013,0.224-0.066,0.266-0.152c0.219-0.454,0.446-0.906,0.699-1.341c0.25-0.43,0.509-0.931,0.94-1.209
		c0.336-0.216,0.791-0.42,1.195-0.268c0.425,0.16,0.568,0.642,0.704,1.034c0.515,1.482,0.801,3.134,0.801,4.707v2.801
		c-0.824,0.128-1.644,0.284-2.457,0.472c-1.315,0.304-2.666,0.654-3.901,1.215c-0.18,0.082-0.024,0.347,0.155,0.266
		c1.207-0.549,2.54-0.89,3.827-1.184c0.787-0.179,1.579-0.329,2.375-0.453v0.756c-1.788,0.255-3.575,0.571-5.332,0.988
		c-0.193,0.046-0.111,0.342,0.082,0.297c1.73-0.41,3.49-0.725,5.251-0.976v0.653c-1.589,0.107-3.178,0.264-4.752,0.5
		c-0.196,0.029-0.112,0.326,0.082,0.297c1.546-0.232,3.109-0.387,4.67-0.49v0.831C483.358,370.718,483.512,371.754,482.654,372.52z
		 M491.186,369.009h-7.213v-0.194c0.111-0.006,0.222-0.013,0.334-0.019c1.598-0.085,3.205-0.119,4.803-0.013
		C489.8,368.828,490.498,368.892,491.186,369.009z M468.71,391.08c0.389-0.004,0.777-0.006,1.166-0.009
		c0.14,0.281,0.356,0.495,0.654,0.642c0.383,0.188,0.802,0.202,1.219,0.202h3.998c0.473,0,1.039-0.498,1.355-0.849h27.621
		c1.488,0,2.792-1.114,2.792-2.657v-9.987c1.273-0.058,2.612,0.075,3.818,0.457c0.92,0.291,1.895,0.774,2.38,1.654
		c0.282,0.512,0.356,1.051,0.348,1.629c-0.013,0.92-0.034,1.839-0.062,2.758c-0.065,2.141-0.157,4.282-0.273,6.421
		c-0.004,0.067-0.034,0.336-0.015,0.259c-0.018,0.088-0.039,0.175-0.063,0.262c-0.138,0.505-0.327,0.997-0.576,1.458
		c-0.87,1.613-2.373,2.75-4.246,2.848c-1.197,0.063-2.403,0.035-3.601,0.04c-4.298,0.018-8.595,0.014-12.893,0.011
		c-2.459-0.002-4.917-0.006-7.376-0.01c-1.152-0.002-2.304-0.004-3.456-0.006c-0.558-0.001-1.117-0.002-1.675-0.003
		c-0.543-0.001-1.107-0.084-1.645-0.025c-0.634,0.069-1.317,0.291-1.594,0.922c-0.159,0.363-0.109,0.76-0.109,1.147
		c0,0.846,0.101,1.753-0.436,2.475c-0.474,0.637-1.269,0.956-2.024,1.105c-1.13,0.223-2.453,0.315-3.471-0.321
		c-1.94-1.213-2.583-3.842-2.956-5.945C467.35,394.033,467.835,392.356,468.71,391.08z M462.464,370.392v0.753
		c0,1.608,1.272,2.597,2.682,3.07c1.798,0.603,3.761,0.68,5.641,0.699c1.712,0.018,3.434,0.028,5.144-0.059
		c1.899-0.097,3.891-0.268,5.667-0.997c1.166-0.478,2.375-1.39,2.375-2.777v-1.457h14.454c2.55,0,6.134-0.454,7.608,2.141
		c0.682,1.2,0.531,2.569,0.531,3.894v12.439c0,1.258-0.84,2.251-2.148,2.251h-18.623c-0.009-0.79-0.066-1.603,0.023-2.386
		c0.065-0.573,0.255-1.196,0.637-1.64c0.66-0.767,1.56-0.905,2.527-0.928c1.375-0.033,2.746,0.032,4.119,0.08
		c0.682,0.023,1.364,0.047,2.046,0.07c0.341,0.012,0.726,0.076,1.066,0.034c0.388-0.048,0.404-0.586,0-0.615
		c-0.794-0.058-1.534-0.163-2.243-0.557c-0.792-0.439-1.468-1.067-2.001-1.797c-0.593-0.812-1.109-1.737-1.405-2.704
		c-0.116-0.378-0.709-0.217-0.593,0.164c0.346,1.132,0.959,2.236,1.699,3.153c0.519,0.644,1.145,1.239,1.87,1.652
		c-0.218-0.008-0.436-0.015-0.654-0.022c-1.603-0.055-3.249-0.22-4.843-0.013c-1.574,0.204-2.602,1.402-2.816,2.931
		c-0.118,0.845-0.056,1.726-0.047,2.579h-1.368c0.624-0.623,0.964-1.591,1.181-2.419c0.608-2.319,0.723-4.846,0.63-7.24
		c-0.016-0.409-0.631-0.411-0.615,0c0.003,0.069,0.004,0.137,0.006,0.206c0.027,1.166-0.001,2.336-0.092,3.499
		c-0.119,1.526-0.286,3.205-0.951,4.596c-0.227,0.474-0.553,1.052-1.065,1.243c-0.311,0.117-0.589,0.088-0.914,0.058
		c-0.559-0.05-1.119-0.083-1.68-0.102c-0.921-0.031-1.843-0.04-2.765-0.031c0.1-0.478,0.083-1.004,0.107-1.465
		c0.051-0.986,0.094-2.004-0.079-2.98c-0.114-0.645-0.325-1.201-0.968-1.449c-0.741-0.286-1.594-0.328-2.379-0.366
		c-1.148-0.055-2.299-0.043-3.447-0.017c-0.232,0.005-0.464,0.012-0.696,0.018c0.137-0.102,0.286-0.184,0.447-0.239
		c0.676-0.23,1.456-0.169,2.162-0.175c0.699-0.006,1.397-0.003,2.096,0.006c0.625,0.009,1.308,0.112,1.928-0.012
		c0.955-0.191,1.657-0.836,1.691-1.844c0.013-0.397-0.602-0.396-0.615,0c-0.026,0.751-0.715,1.29-1.433,1.271
		c-1.029-0.028-2.059-0.043-3.088-0.04c-1.201,0.003-2.719-0.197-3.694,0.659c-0.135,0.119-0.262,0.254-0.377,0.4
		c-0.622,0.019-1.244,0.039-1.866,0.053c-0.631,0.014-1.169-0.096-1.682-0.491c-0.466-0.359-0.885-0.865-0.895-1.478
		c-0.006-0.396-0.622-0.397-0.615,0c0.017,1.07,0.881,1.932,1.802,2.358c0.863,0.399,7.592-0.043,9.537,0.257
		c0.634,0.098,1.239,0.166,1.417,0.861c0.245,0.956,0.2,1.995,0.153,2.973c-0.026,0.552,0.014,1.181-0.162,1.71
		c-0.238,0.614-1.077,1.137-1.202,1.13h-0.365c-0.073,0-0.146-0.001-0.219-0.001v-1.447c0-0.198-0.308-0.198-0.308,0v1.445
		c-0.698-0.007-1.399-0.025-2.097-0.022v-1.495c0-0.198-0.308-0.198-0.308,0v1.498c-0.265,0.004-0.53,0.03-0.795,0.023
		c-0.894-0.024-1.28-1.244-1.294-1.392c-0.019-0.191-0.007-0.618-0.281-0.659c-0.167-0.025-0.361,0.047-0.39,0.237
		c-0.01,0.064,0.077,0.753,0.081,0.864h-5.642c-1.143,0-2.038-0.912-2.072-2.04v-16.193c0-0.196-0.014-0.399,0.004-0.594
		C462.04,371.094,462.208,370.705,462.464,370.392z"/>
	<path fill="#010101" d="M468.5,384.974c0.058-0.056,0.207-0.143,0.217-0.171c0.212,0.016,0.425,0.005,0.636,0.028
		c-0.185,0.332-1.75,2.151-1.05,2.73c0.306,0.253-0.132,0.686-0.435,0.435C466.809,387.119,467.773,385.669,468.5,384.974z"/>
	<path fill="#010101" d="M477.966,403.507c-0.002,0.014-0.007,0.025-0.01,0.038C478.017,403.447,477.976,403.444,477.966,403.507z"
		/>
	<path fill="#010101" d="M477.147,403.519c0.005,0.012,0.009,0.024,0.014,0.035c0.003,0.012,0.005,0.029,0.008,0.049
		C477.147,403.56,477.143,403.525,477.147,403.519z"/>
	<path fill="#010101" d="M482.097,360.94c-0.034,0.272-1.258,0.238-1.436-0.238c-0.178-0.476,0.756-1.428,0.756-1.428
		C482.199,358.764,482.131,360.668,482.097,360.94z"/>
	<path fill="#010101" d="M464.656,361.03c-0.4-0.314-0.097-1.613-0.097-1.613c0.402-0.842,1.335,0.819,1.447,1.069
		C466.118,360.736,465.055,361.344,464.656,361.03z"/>
	<path fill="#010101" d="M465.67,384.974c0.287-0.274,0.722,0.16,0.435,0.435c-0.476,0.455-1.395,1.52-0.632,2.151
		c0.306,0.253-0.132,0.686-0.435,0.435C463.979,387.119,464.943,385.669,465.67,384.974z"/>
	<g>
		<text transform="matrix(0.8721 0 0 1 514.6769 394.1645)" fill="#FFFFFF" font-family="'CenturyGothic'" font-size="36.8795">CODE</text>
	</g>
	<text transform="matrix(1 0 0 1 564.2687 362.3969)" fill="#FFFFFF" font-family="'CenturyGothic'" font-size="6.9677">by  Ukraine</text>
</g>
</svg>
